<svg xmlns="http://www.w3.org/2000/svg" xmlns:xlink="http://www.w3.org/1999/xlink" x="0" y="0" enable-background="new 0 0 1000 1000" version="1.1" viewBox="0 0 1000 1000" xml:space="preserve"><metadata>Svg Vector Icons : http://www.onlinewebfonts.com/icon</metadata><g><g><g><polygon points="945.5 945.5 856.4 945.5 856.4 990 990 990 990 856.4 945.5 856.4"/><polygon points="990 10 856.4 10 856.4 54.5 945.5 54.5 945.5 143.6 990 143.6"/><polygon points="10 990 143.6 990 143.6 945.5 54.5 945.5 54.5 856.4 10 856.4"/><path d="M99.1,900.9h801.8V99.1H99.1V900.9z M143.6,143.6h712.7v712.7H143.6V143.6z"/><polygon points="10 143.6 54.5 143.6 54.5 54.5 143.6 54.5 143.6 10 10 10"/></g></g></g></svg>